<svg width="26" height="26" viewBox="0 0 26 26" fill="none" xmlns="http://www.w3.org/2000/svg">
<path d="M25.1331 23.3673C25.2493 23.4834 25.3414 23.6213 25.4042 23.7731C25.4671 23.9248 25.4994 24.0874 25.4994 24.2517C25.4994 24.4159 25.4671 24.5786 25.4042 24.7303C25.3414 24.882 25.2493 25.0199 25.1331 25.136C25.017 25.2522 24.8791 25.3443 24.7274 25.4072C24.5756 25.47 24.413 25.5024 24.2487 25.5024C24.0845 25.5024 23.9219 25.47 23.7701 25.4072C23.6184 25.3443 23.4805 25.2522 23.3644 25.136L12.9987 14.7689L2.63312 25.136C2.39857 25.3706 2.08045 25.5024 1.74874 25.5024C1.41704 25.5024 1.09892 25.3706 0.864367 25.136C0.629816 24.9015 0.498047 24.5834 0.498047 24.2517C0.498047 23.92 0.629816 23.6018 0.864367 23.3673L11.2316 13.0017L0.864367 2.63605C0.629816 2.4015 0.498047 2.08338 0.498047 1.75167C0.498047 1.41997 0.629816 1.10185 0.864367 0.867297C1.09892 0.632746 1.41704 0.500977 1.74874 0.500977C2.08045 0.500977 2.39857 0.632746 2.63312 0.867297L12.9987 11.2345L23.3644 0.867297C23.5989 0.632746 23.917 0.500977 24.2487 0.500977C24.5804 0.500977 24.8986 0.632746 25.1331 0.867297C25.3677 1.10185 25.4994 1.41997 25.4994 1.75167C25.4994 2.08338 25.3677 2.4015 25.1331 2.63605L14.7659 13.0017L25.1331 23.3673Z" fill="white"/>
</svg>
