<svg width="62" height="72" viewBox="0 0 62 72" fill="none" xmlns="http://www.w3.org/2000/svg">
<path fill-rule="evenodd" clip-rule="evenodd" d="M32.249 2.36918C31.4249 2.19921 30.5751 2.19921 29.7511 2.36918C28.7985 2.56565 27.9472 3.0439 27.2703 3.42411L27.0859 3.52747L4.14671 16.3088C4.08329 16.3442 4.01794 16.3803 3.95098 16.4172C3.2345 16.813 2.33362 17.3107 1.64181 18.0636C1.04368 18.7146 0.591033 19.4861 0.314137 20.3266C-0.00613449 21.2988 -0.00238741 22.3303 0.00059252 23.1507C0.000871083 23.2273 0.00114279 23.3022 0.00114279 23.3749V48.6108C0.00114279 48.6836 0.000871083 48.7584 0.00059252 48.8351C-0.00238741 49.6554 -0.00613449 50.6869 0.314137 51.6591C0.591035 52.4996 1.04368 53.2712 1.64181 53.9221C2.33363 54.6751 3.2345 55.1727 3.95098 55.5685C4.01794 55.6055 4.08329 55.6416 4.14671 55.6769L27.0859 68.4583L27.2704 68.5616C27.9472 68.9419 28.7985 69.4201 29.7511 69.6166C30.5751 69.7865 31.4249 69.7865 32.249 69.6166C33.2015 69.4201 34.0528 68.9418 34.7297 68.5616L34.9141 68.4583L57.8533 55.6769C57.8813 55.6613 57.9097 55.6455 57.9385 55.6296C57.9748 55.6095 58.0116 55.5891 58.049 55.5685C58.7655 55.1727 59.6664 54.6751 60.3582 53.9221C60.9563 53.2712 61.409 52.4996 61.6859 51.6591C62.0061 50.6869 62.0024 49.6554 61.9994 48.8351C61.9991 48.7584 61.9989 48.6836 61.9989 48.6108V23.3749C61.9989 23.3022 61.9991 23.2274 61.9994 23.1507C62.0024 22.3303 62.0061 21.2988 61.6859 20.3266C61.409 19.4861 60.9563 18.7146 60.3582 18.0636C59.6664 17.3107 58.7655 16.813 58.049 16.4172L58.0465 16.4158C57.9804 16.3793 57.9159 16.3437 57.8533 16.3088L34.9141 3.52747L34.7296 3.4241C34.0528 3.04389 33.2015 2.56565 32.249 2.36918ZM30.0967 8.96294C30.5665 8.70119 30.8063 8.56894 30.9852 8.48241L31 8.47529L31.0148 8.48241C31.1937 8.56894 31.4335 8.70119 31.9033 8.96294L52.5158 20.4479L30.9999 32.4362L9.48412 20.448L30.0967 8.96294ZM6.20091 25.7317L27.9 37.8221L27.9001 61.7989L7.15759 50.2415C6.66175 49.9652 6.4086 49.8227 6.23099 49.7092L6.21599 49.6995L6.21487 49.6817C6.2022 49.4709 6.20091 49.1797 6.20091 48.6108V25.7317Z" fill="#101828"/>
</svg>
