<svg width="68" height="68" viewBox="0 0 68 68" fill="none" xmlns="http://www.w3.org/2000/svg">
<path d="M42.1436 3.27887L35.6206 1.53101L30.1235 22.0464L25.1607 3.52496L18.6375 5.27283L23.9995 25.2839L10.6439 11.9283L5.86868 16.7036L20.5181 31.3531L2.27459 26.4647L0.526726 32.9878L20.46 38.3289C20.2318 37.3446 20.1111 36.3189 20.1111 35.2651C20.1111 27.8057 26.1581 21.7586 33.6175 21.7586C41.077 21.7586 47.124 27.8057 47.124 35.2651C47.124 36.3121 47.0048 37.3315 46.7794 38.31L64.8951 43.164L66.6428 36.641L46.6303 31.2786L64.875 26.3899L63.1271 19.8669L43.1153 25.229L56.4709 11.8735L51.6956 7.09826L37.2494 21.5445L42.1436 3.27887Z" fill="#FF4405"/>
<path d="M46.7603 38.386C46.201 40.7504 45.0203 42.8745 43.4003 44.5763L56.5243 57.7004L61.2995 52.9252L46.7603 38.386Z" fill="#FF4405"/>
<path d="M43.2678 44.7135C41.6281 46.3881 39.5561 47.6378 37.2325 48.2818L42.0081 66.1045L48.5311 64.3565L43.2678 44.7135Z" fill="#FF4405"/>
<path d="M36.9889 48.347C35.9108 48.6242 34.7809 48.7715 33.6164 48.7715C32.3689 48.7715 31.1608 48.6023 30.0139 48.2857L25.234 66.1246L31.757 67.8723L36.9889 48.347Z" fill="#FF4405"/>
<path d="M29.7833 48.2199C27.4951 47.5439 25.46 46.2783 23.8538 44.5988L10.6975 57.7552L15.4728 62.5304L29.7833 48.2199Z" fill="#FF4405"/>
<path d="M23.7454 44.4825C22.1668 42.7925 21.017 40.6968 20.4696 38.3688L2.29479 43.2388L4.04264 49.7618L23.7454 44.4825Z" fill="#FF4405"/>
</svg>
