<svg width="38" height="38" viewBox="0 0 38 38" fill="none" xmlns="http://www.w3.org/2000/svg">
<path d="M26.9166 18.6912C26.9166 18.1434 26.9166 17.8695 26.999 17.6256C27.2381 16.9163 27.8698 16.6424 28.5031 16.3542C29.2125 16.0296 29.5671 15.8681 29.9202 15.8396C30.3192 15.808 30.7198 15.8935 31.0618 16.0851C31.5146 16.3384 31.8313 16.8229 32.1543 17.2156C33.6474 19.0301 34.3947 19.9373 34.6671 20.9364C34.8887 21.7439 34.8887 22.5894 34.6671 23.3953C34.2696 24.8551 33.0109 26.0775 32.0783 27.2111C31.6017 27.7891 31.3626 28.0788 31.0618 28.2482C30.7139 28.4411 30.3167 28.5266 29.9202 28.4936C29.5671 28.4651 29.2125 28.3036 28.5016 27.9791C27.8682 27.6909 27.2381 27.417 26.999 26.7076C26.9166 26.4638 26.9166 26.1899 26.9166 25.6436V18.6912ZM11.0833 18.6912C11.0833 18.0009 11.0643 17.3818 10.507 16.8973C10.3043 16.7216 10.0351 16.5996 9.49839 16.3542C8.78748 16.0312 8.43281 15.8681 8.07973 15.8396C7.02364 15.7541 6.45523 16.4761 5.84723 17.2171C4.35256 19.0301 3.60523 19.9373 3.33131 20.938C3.11092 21.7428 3.11092 22.5921 3.33131 23.3969C3.73031 24.8551 4.99064 26.0791 5.92164 27.2111C6.50906 27.9236 7.07114 28.5744 8.07973 28.4936C8.43281 28.4651 8.78748 28.3036 9.49839 27.9791C10.0367 27.7352 10.3043 27.6117 10.507 27.436C11.0643 26.9515 11.0833 26.3324 11.0833 25.6436V18.6912Z" stroke="white" stroke-width="3" stroke-linecap="round" stroke-linejoin="round"/>
<path d="M31.6668 16.625V14.25C31.6668 8.12882 25.9953 3.16666 19.0002 3.16666C12.005 3.16666 6.3335 8.12882 6.3335 14.25V16.625M31.6668 27.7083C31.6668 34.8333 25.3335 34.8333 19.0002 34.8333" stroke="white" stroke-width="3" stroke-linecap="round" stroke-linejoin="round"/>
</svg>
