<svg width="35" height="30" viewBox="0 0 35 30" fill="none" xmlns="http://www.w3.org/2000/svg">
<path d="M34.3247 14.4914L30.2489 5.22356C30.1441 4.98545 29.97 4.78252 29.7481 4.6399C29.5261 4.49729 29.2661 4.42126 29.0003 4.42123H24.9245V1.77326C24.9245 1.42212 24.7813 1.08536 24.5266 0.837066C24.2718 0.588771 23.9262 0.44928 23.5659 0.44928H1.82818V3.09724H22.2073V19.7212C21.5886 20.0719 21.0471 20.5384 20.6139 21.0937C20.1807 21.649 19.8643 22.2822 19.683 22.957H11.1455C10.8148 21.7089 10.0284 20.6212 8.93368 19.8978C7.83894 19.1743 6.51104 18.8648 5.19888 19.0272C3.88672 19.1897 2.68039 19.8129 1.80601 20.7801C0.931622 21.7472 0.449219 22.992 0.449219 24.281C0.449219 25.57 0.931622 26.8147 1.80601 27.7819C2.68039 28.7491 3.88672 29.3723 5.19888 29.5347C6.51104 29.6971 7.83894 29.3876 8.93368 28.6641C10.0284 27.9407 10.8148 26.853 11.1455 25.6049H19.683C19.9785 26.7412 20.6544 27.7491 21.6037 28.469C22.5531 29.1888 23.7216 29.5797 24.9245 29.5797C26.1274 29.5797 27.2959 29.1888 28.2452 28.469C29.1945 27.7491 29.8704 26.7412 30.166 25.6049H33.0761C33.4364 25.6049 33.782 25.4655 34.0368 25.2172C34.2916 24.9689 34.4347 24.6321 34.4347 24.281V15.0131C34.4347 14.8337 34.3972 14.6563 34.3247 14.4914ZM5.904 26.9289C5.36659 26.9289 4.84124 26.7736 4.3944 26.4827C3.94755 26.1917 3.59928 25.7782 3.39362 25.2943C3.18796 24.8104 3.13415 24.278 3.239 23.7644C3.34384 23.2507 3.60263 22.7789 3.98264 22.4086C4.36265 22.0382 4.84681 21.7861 5.3739 21.6839C5.90098 21.5817 6.44732 21.6341 6.94383 21.8346C7.44034 22.035 7.86471 22.3744 8.16328 22.8098C8.46185 23.2453 8.62121 23.7572 8.62121 24.281C8.62121 24.9832 8.33493 25.6568 7.82536 26.1534C7.31578 26.65 6.62465 26.9289 5.904 26.9289ZM24.9245 7.06919H28.1036L31.0165 13.6891H24.9245V7.06919ZM24.9245 26.9289C24.3871 26.9289 23.8617 26.7736 23.4149 26.4827C22.968 26.1917 22.6198 25.7782 22.4141 25.2943C22.2084 24.8104 22.1546 24.278 22.2595 23.7644C22.3643 23.2507 22.6231 22.7789 23.0031 22.4086C23.3831 22.0382 23.8673 21.7861 24.3944 21.6839C24.9215 21.5817 25.4678 21.6341 25.9643 21.8346C26.4608 22.035 26.8852 22.3744 27.1838 22.8098C27.4823 23.2453 27.6417 23.7572 27.6417 24.281C27.6417 24.9832 27.3554 25.6568 26.8458 26.1534C26.3363 26.65 25.6451 26.9289 24.9245 26.9289ZM31.7175 22.957H30.166C29.8667 21.8229 29.1897 20.8177 28.2412 20.0988C27.2926 19.38 26.1261 18.9883 24.9245 18.985V16.3371H31.7175V22.957Z" fill="white"/>
</svg>
