<svg width="10" height="16" viewBox="0 0 10 16" fill="none" xmlns="http://www.w3.org/2000/svg">
<path d="M0.994359 14.7089C0.927995 14.7753 0.875353 14.8541 0.839437 14.9408C0.80352 15.0275 0.785033 15.1204 0.785033 15.2143C0.785033 15.3081 0.80352 15.4011 0.839437 15.4878C0.875353 15.5745 0.927995 15.6533 0.994359 15.7196C1.06072 15.786 1.13951 15.8386 1.22622 15.8745C1.31293 15.9105 1.40586 15.9289 1.49972 15.9289C1.59357 15.9289 1.6865 15.9105 1.77321 15.8745C1.85992 15.8386 1.93871 15.786 2.00507 15.7196L9.14793 8.57677C9.21434 8.51043 9.26703 8.43165 9.30297 8.34494C9.33892 8.25822 9.35742 8.16528 9.35742 8.07141C9.35742 7.97754 9.33892 7.88459 9.30297 7.79788C9.26703 7.71117 9.21434 7.63239 9.14793 7.56605L2.00507 0.423193C1.87105 0.289164 1.68926 0.213867 1.49972 0.213867C1.31017 0.213867 1.12839 0.289164 0.994359 0.423193C0.860331 0.557222 0.785033 0.739004 0.785033 0.92855C0.785033 1.1181 0.860331 1.29988 0.994359 1.43391L7.63275 8.07141L0.994359 14.7089Z" fill="white"/>
</svg>
