<svg width="38" height="38" viewBox="0 0 38 38" fill="none" xmlns="http://www.w3.org/2000/svg">
<path d="M17.4245 3.16666L28.9796 6.77666C29.3019 6.87727 29.5836 7.07825 29.7836 7.35028C29.9835 7.62231 30.0913 7.95113 30.0911 8.28874V11.0833H33.2578C33.6777 11.0833 34.0805 11.2501 34.3774 11.5471C34.6743 11.844 34.8411 12.2467 34.8411 12.6667V25.3333C34.8411 25.7532 34.6743 26.156 34.3774 26.4529C34.0805 26.7498 33.6777 26.9167 33.2578 26.9167L28.1595 26.9182C27.5467 27.7257 26.8026 28.4382 25.9428 29.0241L17.4245 34.8333L8.90615 29.0257C7.62764 28.154 6.58142 26.9831 5.85845 25.615C5.13548 24.2469 4.75765 22.7229 4.75781 21.1755V8.28874C4.758 7.9514 4.86593 7.62293 5.06587 7.35122C5.26581 7.07952 5.5473 6.87877 5.86931 6.77824L17.4245 3.16666ZM17.4245 6.48216L7.92448 9.45249V21.1755C7.92425 22.1448 8.14654 23.1013 8.57422 23.9712C9.0019 24.8411 9.62356 25.6013 10.3913 26.1931L10.6906 26.4084L17.4245 31.0001L23.4126 26.9167H15.8411C15.4212 26.9167 15.0185 26.7498 14.7216 26.4529C14.4246 26.156 14.2578 25.7532 14.2578 25.3333V12.6667C14.2578 12.2467 14.4246 11.844 14.7216 11.5471C15.0185 11.2501 15.4212 11.0833 15.8411 11.0833H26.9245V9.45249L17.4245 6.48216ZM17.4245 19V23.75H31.6745V19H17.4245ZM17.4245 15.8333H31.6745V14.25H17.4245V15.8333Z" fill="white"/>
</svg>
