<svg width="17" height="16" viewBox="0 0 17 16" fill="none" xmlns="http://www.w3.org/2000/svg">
<path d="M14.3981 9.90362L11.4538 8.58425L11.4456 8.5805C11.2928 8.51512 11.126 8.48888 10.9605 8.50416C10.7949 8.51944 10.6358 8.57575 10.4975 8.668C10.4812 8.67875 10.4656 8.69044 10.4506 8.703L8.92938 9.99987C7.96563 9.53175 6.97063 8.54425 6.50251 7.593L7.80126 6.04862C7.81376 6.033 7.82563 6.01737 7.83688 6.0005C7.92715 5.86256 7.98192 5.70445 7.99631 5.54023C8.0107 5.37601 7.98428 5.21078 7.91938 5.05925V5.05175L6.59626 2.10237C6.51047 1.90441 6.36296 1.73951 6.17575 1.63227C5.98854 1.52504 5.77166 1.48122 5.55751 1.50737C4.71061 1.61882 3.93324 2.03473 3.37059 2.67743C2.80794 3.32014 2.49847 4.14568 2.50001 4.99987C2.50001 9.96237 6.53751 13.9999 11.5 13.9999C12.3542 14.0014 13.1797 13.6919 13.8224 13.1293C14.4651 12.5666 14.8811 11.7893 14.9925 10.9424C15.0187 10.7283 14.975 10.5115 14.8679 10.3243C14.7607 10.1371 14.596 9.98951 14.3981 9.90362ZM11.5 12.9999C9.37898 12.9976 7.3455 12.154 5.84571 10.6542C4.34592 9.15438 3.50232 7.12089 3.50001 4.99987C3.49765 4.38955 3.71754 3.79925 4.11859 3.33919C4.51964 2.87913 5.07444 2.58079 5.67938 2.49987C5.67913 2.50237 5.67913 2.50488 5.67938 2.50737L6.99188 5.44487L5.70001 6.99112C5.68689 7.00621 5.67498 7.0223 5.66438 7.03925C5.57033 7.18357 5.51515 7.34975 5.5042 7.52166C5.49325 7.69358 5.5269 7.86541 5.60188 8.0205C6.16813 9.17862 7.33501 10.3367 8.50563 10.9024C8.66186 10.9767 8.83468 11.0091 9.00722 10.9966C9.17976 10.9842 9.3461 10.9271 9.49001 10.8311C9.50605 10.8203 9.52149 10.8086 9.53626 10.7961L11.0556 9.49987L13.9931 10.8155C13.9931 10.8155 13.9981 10.8155 14 10.8155C13.9201 11.4213 13.6222 11.9772 13.162 12.3793C12.7019 12.7813 12.111 13.0019 11.5 12.9999Z" fill="white"/>
</svg>
