<svg width="9" height="17" viewBox="0 0 9 17" fill="none" xmlns="http://www.w3.org/2000/svg">
<path d="M8.43435 15.1375C8.50072 15.2039 8.55336 15.2826 8.58927 15.3694C8.62519 15.4561 8.64368 15.549 8.64368 15.6429C8.64368 15.7367 8.62519 15.8296 8.58927 15.9164C8.55336 16.0031 8.50072 16.0818 8.43435 16.1482C8.36799 16.2146 8.2892 16.2672 8.20249 16.3031C8.11578 16.3391 8.02285 16.3575 7.92899 16.3575C7.83514 16.3575 7.74221 16.3391 7.6555 16.3031C7.56879 16.2672 7.49 16.2146 7.42364 16.1482L0.280779 9.00535C0.214368 8.93902 0.161683 8.86024 0.125737 8.77353C0.0897911 8.68681 0.0712891 8.59386 0.0712891 8.5C0.0712891 8.40613 0.0897911 8.31318 0.125737 8.22647C0.161683 8.13975 0.214368 8.06098 0.280779 7.99464L7.42364 0.851782C7.55767 0.717753 7.73945 0.642456 7.92899 0.642456C8.11854 0.642456 8.30032 0.717753 8.43435 0.851782C8.56838 0.985811 8.64368 1.16759 8.64368 1.35714C8.64368 1.54668 8.56838 1.72847 8.43435 1.8625L1.79596 8.5L8.43435 15.1375Z" fill="white"/>
</svg>
