<svg width="51" height="54" viewBox="0 0 51 54" fill="none" xmlns="http://www.w3.org/2000/svg">
<path d="M48.3335 12.4516L27.1796 0.972206C26.6144 0.662469 25.9792 0.5 25.3335 0.5C24.6877 0.5 24.0525 0.662469 23.4873 0.972206L2.3335 12.4564C1.72938 12.7842 1.22509 13.2669 0.873284 13.854C0.521477 14.4412 0.335059 15.1112 0.333496 15.7942V38.5957C0.335059 39.2787 0.521477 39.9487 0.873284 40.5358C1.22509 41.1229 1.72938 41.6056 2.3335 41.9334L23.4873 53.4176C24.0525 53.7274 24.6877 53.8898 25.3335 53.8898C25.9792 53.8898 26.6144 53.7274 27.1796 53.4176L48.3335 41.9334C48.9376 41.6056 49.4419 41.1229 49.7937 40.5358C50.1455 39.9487 50.3319 39.2787 50.3335 38.5957V15.7965C50.3332 15.1123 50.1474 14.4408 49.7955 13.8523C49.4437 13.2639 48.9387 12.7801 48.3335 12.4516ZM25.3335 4.30995L44.646 14.8L37.4897 18.6861L18.1748 8.19603L25.3335 4.30995ZM25.3335 25.29L6.021 14.8L14.17 10.3751L33.4825 20.8651L25.3335 25.29ZM4.17965 18.1377L23.4104 28.5753V49.0285L4.17965 38.5981V18.1377ZM46.4873 38.5885L27.2566 49.0285V28.5848L34.9489 24.4103V32.9191C34.9489 33.425 35.1515 33.9101 35.5121 34.2678C35.8728 34.6255 36.3619 34.8264 36.872 34.8264C37.382 34.8264 37.8711 34.6255 38.2318 34.2678C38.5924 33.9101 38.795 33.425 38.795 32.9191V22.3218L46.4873 18.1377V38.5861V38.5885Z" fill="white"/>
</svg>
