<svg width="33" height="33" viewBox="0 0 33 33" fill="none" xmlns="http://www.w3.org/2000/svg">
<path d="M27.8711 5.06411C26.3921 3.57068 24.6306 2.38654 22.6894 1.58069C20.7482 0.774851 18.666 0.363424 16.5642 0.370387C7.75741 0.370387 0.579721 7.54807 0.579721 16.3549C0.579721 19.1775 1.32168 21.9196 2.70883 24.339L0.450684 32.6296L8.91874 30.4038C11.2575 31.678 13.8867 32.3554 16.5642 32.3554C25.371 32.3554 32.5486 25.1778 32.5486 16.371C32.5486 12.0966 30.8873 8.08035 27.8711 5.06411ZM16.5642 29.6457C14.177 29.6457 11.8382 29.0005 9.78974 27.7908L9.30585 27.5004L4.27341 28.8231L5.61216 23.9196L5.28957 23.4196C3.96299 21.3019 3.25873 18.8538 3.25724 16.3549C3.25724 9.032 9.2252 3.06404 16.5481 3.06404C20.0966 3.06404 23.4354 4.45118 25.9355 6.96741C27.1736 8.19949 28.1548 9.66516 28.8221 11.2794C29.4894 12.8936 29.8295 14.6243 29.8227 16.371C29.855 23.6938 23.887 29.6457 16.5642 29.6457ZM23.8548 19.7098C23.4515 19.5163 21.4837 18.5485 21.1289 18.4033C20.7579 18.2743 20.4998 18.2098 20.2256 18.5969C19.9514 19.0001 19.1933 19.9034 18.9675 20.1614C18.7417 20.4356 18.4997 20.4679 18.0965 20.2582C17.6933 20.0647 16.4029 19.6292 14.8867 18.2743C13.6931 17.2097 12.9028 15.9032 12.6608 15.5C12.435 15.0967 12.6286 14.8871 12.8382 14.6774C13.0157 14.4999 13.2415 14.2096 13.435 13.9838C13.6286 13.758 13.7092 13.5806 13.8383 13.3225C13.9673 13.0483 13.9028 12.8225 13.806 12.6289C13.7092 12.4354 12.9028 10.4675 12.5802 9.66105C12.2576 8.88683 11.9188 8.98361 11.6769 8.96748H10.9027C10.6285 8.96748 10.2091 9.06426 9.83813 9.4675C9.48328 9.87074 8.45098 10.8385 8.45098 12.8063C8.45098 14.7741 9.88652 16.6774 10.0801 16.9355C10.2736 17.2097 12.9028 21.2421 16.9029 22.968C17.8546 23.3874 18.5965 23.6293 19.1772 23.8067C20.1288 24.1132 20.9998 24.0648 21.6934 23.968C22.4676 23.8551 24.0645 23.0003 24.3871 22.0647C24.7258 21.1292 24.7258 20.3389 24.6129 20.1614C24.5 19.984 24.258 19.9034 23.8548 19.7098Z" fill="white"/>
</svg>
